# xmcd
#
# Track frame offsets: 
#        150
#        15329
#        25805
#        37039
#        47570
#        59232
#        69630
#        81913
#        95706
#        106673
#        127063
#        131791
#        139835
#
# Disc length: 1985 seconds
#
# Revision: 0
# Processed by: cddbd v1.5.2PL0 Copyright (c) Steve Scherf et al.
# Submitted via: ExactAudioCopy v0.99pb4
#
DISCID=bb07bf0d
DTITLE=Stew Clayton - The Flood Disaster of 1997
DYEAR=1900
DGENRE=Western
TTITLE0=The Flood Disater of 1997
TTITLE1=Red River Valley Blues
TTITLE2=Memories of my Old Cabin Home
TTITLE3=Karlstad Ball
TTITLE4=Everybody's Been Some Mothers Darling
TTITLE5=The Yodeling Mountain Boy
TTITLE6=Memories of Wilf Carter
TTITLE7=I'd Like to be in Texas
TTITLE8=Chime Bells
TTITLE9=Working Man
TTITLE10=Frontier Farmers' Jig
TTITLE11=Yvette
TTITLE12=My Home in the Pembina Hills
EXTD=
EXTT0=
EXTT1=
EXTT2=
EXTT3=
EXTT4=
EXTT5=
EXTT6=
EXTT7=
EXTT8=
EXTT9=
EXTT10=
EXTT11=
EXTT12=
PLAYORDER=
